<?xml version="1.0" encoding="UTF-8"?><svg id="Layer_1" xmlns="http://www.w3.org/2000/svg" viewBox="0 0 512 512"><defs><style>.cls-1{fill:#1d306d;}.cls-2{fill:#fff;stroke:#232630;stroke-miterlimit:10;stroke-width:10px;}.cls-3{fill:#d2e0ff;}</style></defs><rect class="cls-1" x="12.59" y="122.93" width="486.82" height="266.14" rx="26.72" ry="26.72"/><rect class="cls-3" x="164.22" y="202.51" width="54.96" height="49.09" rx="16.81" ry="16.81"/><rect class="cls-3" x="99.93" y="202.51" width="54.96" height="49.09" rx="16.81" ry="16.81"/><rect class="cls-3" x="292.81" y="202.51" width="54.96" height="49.09" rx="16.81" ry="16.81"/><rect class="cls-3" x="357.11" y="202.51" width="54.96" height="49.09" rx="16.81" ry="16.81"/><rect class="cls-3" x="164.22" y="144.79" width="54.96" height="49.09" rx="16.81" ry="16.81"/><rect class="cls-3" x="99.93" y="144.79" width="54.96" height="49.09" rx="16.81" ry="16.81"/><rect class="cls-3" x="292.81" y="144.79" width="54.96" height="49.09" rx="16.81" ry="16.81"/><rect class="cls-3" x="357.11" y="144.79" width="54.96" height="49.09" rx="16.81" ry="16.81"/><rect class="cls-3" x="164.22" y="259.37" width="54.96" height="49.09" rx="16.81" ry="16.81"/><rect class="cls-3" x="99.93" y="259.37" width="54.96" height="49.09" rx="16.81" ry="16.81"/><rect class="cls-3" x="99.93" y="317.09" width="68.86" height="50.97" rx="16.81" ry="16.81"/><rect class="cls-3" x="181.02" y="317.09" width="149.95" height="50.97" rx="16.81" ry="16.81"/><rect class="cls-3" x="343.21" y="317.09" width="68.86" height="50.97" rx="16.81" ry="16.81"/><rect class="cls-3" x="228.52" y="202.51" width="54.96" height="49.09" rx="16.81" ry="16.81"/><rect class="cls-3" x="228.52" y="144.79" width="54.96" height="49.09" rx="16.81" ry="16.81"/><rect class="cls-3" x="228.52" y="259.37" width="54.96" height="49.09" rx="16.81" ry="16.81"/><rect class="cls-3" x="292.81" y="259.37" width="54.96" height="49.09" rx="16.81" ry="16.81"/><rect class="cls-3" x="357.11" y="259.37" width="54.96" height="49.09" rx="16.81" ry="16.81"/><rect class="cls-3" x="422.87" y="202.55" width="54.96" height="49.09" rx="16.81" ry="16.81"/><rect class="cls-3" x="422.87" y="144.83" width="54.96" height="49.09" rx="16.81" ry="16.81"/><rect class="cls-3" x="422.87" y="259.41" width="54.96" height="49.09" rx="16.81" ry="16.81"/><rect class="cls-3" x="422.87" y="318.03" width="54.96" height="49.09" rx="16.81" ry="16.81"/><rect class="cls-3" x="35" y="202.55" width="54.96" height="49.09" rx="16.81" ry="16.81"/><rect class="cls-3" x="35" y="144.83" width="54.96" height="49.09" rx="16.81" ry="16.81"/><rect class="cls-3" x="35" y="259.41" width="54.96" height="49.09" rx="16.81" ry="16.81"/><rect class="cls-3" x="35" y="318.03" width="54.96" height="49.09" rx="16.81" ry="16.81"/><path class="cls-2" d="M366.39,235.7L179.55,79.72c-3.18-2.66-8.02-.39-8.02,3.75l.07,241.98c0,3.57,3.7,5.93,6.93,4.44l71.43-32.89c2.45-1.13,5.36-.06,6.49,2.4l62.23,135.14c1.13,2.45,4.03,3.53,6.49,2.4l26.24-12.08c2.45-1.13,3.53-4.03,2.4-6.49l-62.23-135.14c-1.13-2.45-.06-5.36,2.4-6.49l71.34-32.85c3.26-1.5,3.85-5.89,1.09-8.19Z"/></svg>